<?xml version="1.0" encoding="UTF-8" standalone="no"?>
<svg
   xmlns:dc="http://purl.org/dc/elements/1.1/"
   xmlns:cc="http://creativecommons.org/ns#"
   xmlns:rdf="http://www.w3.org/1999/02/22-rdf-syntax-ns#"
   xmlns:svg="http://www.w3.org/2000/svg"
   xmlns="http://www.w3.org/2000/svg"
   xmlns:sodipodi="http://sodipodi.sourceforge.net/DTD/sodipodi-0.dtd"
   xmlns:inkscape="http://www.inkscape.org/namespaces/inkscape"
   viewBox="0 0 566.92914 566.92914"
   height="566.92914"
   width="566.92914"
   xml:space="preserve"
   version="1.1"
   id="svg6345"
   sodipodi:docname="50_zone_beginn.svg"
   inkscape:version="0.92.3 (unknown)"><sodipodi:namedview
     pagecolor="#ffffff"
     bordercolor="#666666"
     borderopacity="1"
     objecttolerance="10"
     gridtolerance="10"
     guidetolerance="10"
     inkscape:pageopacity="1"
     inkscape:pageshadow="2"
     inkscape:window-width="3775"
     inkscape:window-height="2136"
     id="namedview20"
     showgrid="false"
     fit-margin-top="0"
     fit-margin-left="0"
     fit-margin-right="0"
     fit-margin-bottom="0"
     inkscape:zoom="3.1466667"
     inkscape:cx="132.54736"
     inkscape:cy="355.21961"
     inkscape:window-x="65"
     inkscape:window-y="24"
     inkscape:window-maximized="1"
     inkscape:current-layer="svg6345" /><metadata
     id="metadata6351"><rdf:RDF><cc:Work
         rdf:about=""><dc:format>image/svg+xml</dc:format><dc:type
           rdf:resource="http://purl.org/dc/dcmitype/StillImage" /><dc:title></dc:title></cc:Work></rdf:RDF></metadata><defs
     id="defs6349"><clipPath
       id="clipPath6363"
       clipPathUnits="userSpaceOnUse"><path
         id="path6365"
         d="M 0,0 H 480 V 480 H 0 Z"
         inkscape:connector-curvature="0" /></clipPath></defs><g
     id="g6357"
     transform="matrix(1.1811024,0,0,-1.1811024,0,566.92915)"><g
       id="g6359"><g
         clip-path="url(#clipPath6363)"
         id="g6361"><g
           id="g6367"><path
             id="path6369"
             style="fill:#ffffff;fill-opacity:1;fill-rule:nonzero;stroke:none"
             d="m 32.414,0.484 c -17.633,0 -31.93,14.297 -31.93,31.942 v 415.172 c 0,17.632 14.297,31.929 31.93,31.929 h 415.172 c 17.644,0 31.941,-14.297 31.941,-31.929 V 32.426 c 0,-17.645 -14.297,-31.942 -31.941,-31.942"
             inkscape:connector-curvature="0" /><path
             id="path6371"
             style="fill:#000000;fill-opacity:1;fill-rule:nonzero;stroke:none"
             d="M 32.414,480.012 C 14.539,480.012 0,465.461 0,447.598 V 32.426 C 0,14.551 14.539,0 32.414,0 H 447.586 C 465.461,0 480,14.551 480,32.426 v 415.172 c 0,17.863 -14.539,32.414 -32.414,32.414 z m 0,-0.485 h 415.172 c 17.644,0 31.941,-14.297 31.941,-31.929 V 32.426 C 479.527,14.781 465.23,0.484 447.586,0.484 H 32.414 c -17.637,0 -31.93,14.297 -31.93,31.942 v 415.172 c 0,17.632 14.293,31.929 31.93,31.929 z"
             inkscape:connector-curvature="0" /></g></g></g></g><path
     id="path6373"
     style="fill:#000000;fill-opacity:1;fill-rule:nonzero;stroke:none;stroke-width:1.1811024"
     d="m 38.284253,9.988581 c -15.612992,0 -28.2862212,12.669685 -28.2862212,28.281497 V 528.63072 c 0,15.62717 12.6732292,28.3004 28.2862212,28.3004 H 528.6449 c 15.62598,0 28.28622,-12.67323 28.28622,-28.3004 V 38.270078 c 0,-15.611812 -12.66024,-28.281497 -28.28622,-28.281497 z m 0,14.141339 H 528.6449 c 7.81063,0 14.14134,6.343701 14.14134,14.140158 V 528.63072 c 0,7.81181 -6.33071,14.15552 -14.14134,14.15552 H 38.284253 c -7.815354,0 -14.141339,-6.34371 -14.141339,-14.15552 V 38.270078 c 0,-7.796457 6.325985,-14.140158 14.141339,-14.140158 z"
     inkscape:connector-curvature="0" /><path
     id="path6375"
     style="fill:#c1121c;fill-opacity:1;fill-rule:nonzero;stroke:none;stroke-width:1.1811024"
     d="m 283.47402,50.22874 c -99.15708,0 -179.53228,80.37047 -179.53228,179.52756 0,99.1441 80.3752,179.52757 179.53228,179.52757 99.1382,0 179.52757,-80.38347 179.52757,-179.52757 0,-99.15709 -80.38937,-179.52756 -179.52757,-179.52756 z m 0,47.244096 c 73.05237,0 132.28347,59.226384 132.28347,132.283464 0,73.05827 -59.2311,132.2882 -132.28347,132.2882 -73.05827,0 -132.28819,-59.22993 -132.28819,-132.2882 0,-73.05708 59.22992,-132.283464 132.28819,-132.283464 z"
     inkscape:connector-curvature="0" /><flowRoot
     xml:space="preserve"
     id="flowRoot36"
     style="font-style:normal;font-variant:normal;font-weight:normal;font-stretch:normal;font-size:39.9992414px;line-height:1.25;font-family:'Alte DIN 1451 Mittelschrift';-inkscape-font-specification:'Alte DIN 1451 Mittelschrift, Normal';font-variant-ligatures:normal;font-variant-caps:normal;font-variant-numeric:normal;font-feature-settings:normal;text-align:start;letter-spacing:0px;word-spacing:0px;writing-mode:lr;text-anchor:start;fill:#000000;fill-opacity:1;stroke:none;"
     transform="matrix(5.4671035,0,0,5.4671035,-996.01498,-859.41278)"><flowRegion
       id="flowRegion38"
       style="font-style:normal;font-variant:normal;font-weight:normal;font-stretch:normal;font-size:39.9992414px;font-family:'Alte DIN 1451 Mittelschrift';-inkscape-font-specification:'Alte DIN 1451 Mittelschrift, Normal';font-variant-ligatures:normal;font-variant-caps:normal;font-variant-numeric:normal;font-feature-settings:normal;text-align:start;writing-mode:lr;text-anchor:start;"><rect
         id="rect40"
         width="96.178505"
         height="138.20042"
         x="214.82863"
         y="176.14777"
         style="font-style:normal;font-variant:normal;font-weight:normal;font-stretch:normal;font-size:39.9992414px;font-family:'Alte DIN 1451 Mittelschrift';-inkscape-font-specification:'Alte DIN 1451 Mittelschrift, Normal';font-variant-ligatures:normal;font-variant-caps:normal;font-variant-numeric:normal;font-feature-settings:normal;text-align:start;writing-mode:lr;text-anchor:start;" /></flowRegion><flowPara
       id="flowPara200">5</flowPara></flowRoot><path
     id="path6379"
     style="fill:#000000;fill-opacity:1;fill-rule:nonzero;stroke:none;stroke-width:1.1811024"
     d="m 316.52599,264.20197 c 0,12.18544 9.87402,22.04056 22.05827,22.04056 12.17126,0 22.0441,-9.85512 22.0441,-22.04056 v -68.90078 c 0,-12.17008 -9.87284,-22.0441 -22.0441,-22.0441 -12.18425,0 -22.05827,9.87402 -22.05827,22.0441 z m -22.03937,0 v -68.90078 c 0,-24.34607 19.74213,-44.0882 44.09764,-44.0882 24.36024,0 44.10237,19.74213 44.10237,44.0882 v 68.90078 c 0,24.35552 -19.74213,44.09764 -44.10237,44.09764 -24.35551,0 -44.09764,-19.74212 -44.09764,-44.09764"
     inkscape:connector-curvature="0" /><path
     id="path6381"
     style="fill:#000000;fill-opacity:1;fill-rule:nonzero;stroke:none;stroke-width:1.1811024"
     d="m 364.24135,516.68624 v -79.36891 h 51.04488 v 11.32678 h -38.98464 v 22.68543 h 33.31063 v 10.62992 h -33.31063 v 23.38583 h 38.98464 v 11.34095 z m -77.94449,0 v -79.36891 h 11.34567 l 36.14291,56.68347 v -56.68347 h 12.04252 v 79.36891 H 334.48702 L 298.3571,459.9886 v 56.69764 z m -60.22677,-27.64016 c 0,8.99645 7.28504,16.29921 16.28622,16.29921 9.01535,0 16.30039,-7.30276 16.30039,-16.29921 v -24.10276 c 0,-8.98701 -7.28504,-16.29921 -16.30039,-16.29921 -9.00118,0 -16.28622,7.3122 -16.28622,16.29921 z m -12.05552,0 v -24.10276 c 0,-15.64488 12.69685,-28.34173 28.34174,-28.34173 15.65905,0 28.3559,12.69685 28.3559,28.34173 v 24.10276 c 0,15.65315 -12.69685,28.34173 -28.3559,28.34173 -15.64489,0 -28.34174,-12.68858 -28.34174,-28.34173 z m -62.35866,27.64016 v -9.91536 l 36.1441,-58.82835 h -34.72678 v -10.6252 h 49.60985 v 9.19961 l -36.14292,58.82835 h 36.14292 v 11.34095"
     inkscape:connector-curvature="0" /><flowRoot
     xml:space="preserve"
     id="flowRoot22"
     style="font-style:normal;font-weight:normal;font-size:40px;line-height:1.25;font-family:'Alte DIN 1451 Mittelschrift gepraegt';letter-spacing:0px;word-spacing:0px;fill:#000000;fill-opacity:1;stroke:none;-inkscape-font-specification:'Alte DIN 1451 Mittelschrift gepraegt, Normal';font-stretch:normal;font-variant:normal;text-anchor:start;text-align:start;writing-mode:lr;font-variant-ligatures:normal;font-variant-caps:normal;font-variant-numeric:normal;font-feature-settings:normal;"><flowRegion
       id="flowRegion24"
       style="-inkscape-font-specification:'Alte DIN 1451 Mittelschrift gepraegt, Normal';font-family:'Alte DIN 1451 Mittelschrift gepraegt';font-weight:normal;font-style:normal;font-stretch:normal;font-variant:normal;font-size:40px;text-anchor:start;text-align:start;writing-mode:lr;font-variant-ligatures:normal;font-variant-caps:normal;font-variant-numeric:normal;font-feature-settings:normal;"><rect
         id="rect26"
         width="95.504356"
         height="163.59335"
         x="181.57063"
         y="150.97957"
         style="-inkscape-font-specification:'Alte DIN 1451 Mittelschrift gepraegt, Normal';font-family:'Alte DIN 1451 Mittelschrift gepraegt';font-weight:normal;font-style:normal;font-stretch:normal;font-variant:normal;font-size:40px;text-anchor:start;text-align:start;writing-mode:lr;font-variant-ligatures:normal;font-variant-caps:normal;font-variant-numeric:normal;font-feature-settings:normal;" /></flowRegion><flowPara
       id="flowPara30"></flowPara></flowRoot><text
     xml:space="preserve"
     style="font-style:normal;font-weight:normal;font-size:40px;line-height:1.25;font-family:sans-serif;letter-spacing:0px;word-spacing:0px;fill:#000000;fill-opacity:1;stroke:none"
     x="207.18828"
     y="196.14751"
     id="text34"><tspan
       sodipodi:role="line"
       id="tspan32"
       x="207.18828"
       y="231.53813"></tspan></text>
</svg>