<?xml version="1.0" encoding="UTF-8" standalone="no"?>
<svg
   xmlns:dc="http://purl.org/dc/elements/1.1/"
   xmlns:cc="http://creativecommons.org/ns#"
   xmlns:rdf="http://www.w3.org/1999/02/22-rdf-syntax-ns#"
   xmlns:svg="http://www.w3.org/2000/svg"
   xmlns="http://www.w3.org/2000/svg"
   xmlns:sodipodi="http://sodipodi.sourceforge.net/DTD/sodipodi-0.dtd"
   xmlns:inkscape="http://www.inkscape.org/namespaces/inkscape"
   viewBox="0 0 566.92914 566.92914"
   height="566.92914"
   width="566.92914"
   xml:space="preserve"
   version="1.1"
   id="svg7047"
   sodipodi:docname="ende_10_zone.svg"
   inkscape:version="0.92.3 (unknown)"
   inkscape:export-filename="/home/mykyta/drive_ml/TEST.png"
   inkscape:export-xdpi="300"
   inkscape:export-ydpi="300"><sodipodi:namedview
     pagecolor="#ffffff"
     bordercolor="#666666"
     borderopacity="1"
     objecttolerance="10"
     gridtolerance="10"
     guidetolerance="10"
     inkscape:pageopacity="1"
     inkscape:pageshadow="2"
     inkscape:window-width="3775"
     inkscape:window-height="2136"
     id="namedview30"
     showgrid="false"
     inkscape:zoom="2.2250293"
     inkscape:cx="288.51694"
     inkscape:cy="324.22843"
     inkscape:window-x="65"
     inkscape:window-y="24"
     inkscape:window-maximized="1"
     inkscape:current-layer="svg7047"
     fit-margin-top="0"
     fit-margin-left="0"
     fit-margin-right="0"
     fit-margin-bottom="0" /><metadata
     id="metadata7053"><rdf:RDF><cc:Work
         rdf:about=""><dc:format>image/svg+xml</dc:format><dc:type
           rdf:resource="http://purl.org/dc/dcmitype/StillImage" /><dc:title></dc:title></cc:Work></rdf:RDF></metadata><defs
     id="defs7051" /><path
     id="path7059"
     style="fill:#ffffff;fill-opacity:1;fill-rule:nonzero;stroke:none;stroke-width:1.17934251"
     d="m 38.284253,566.92913 c -20.82638,0 -37.71259945,-16.83593 -37.71259945,-37.61324 V 40.415632 C 0.57165355,19.651277 17.457873,2.815346 38.284253,2.815346 H 528.6449 c 20.83936,0 37.72558,16.835931 37.72558,37.600286 V 529.31589 c 0,20.77731 -16.88622,37.61324 -37.72558,37.61324"
     inkscape:connector-curvature="0"
     inkscape:export-xdpi="300"
     inkscape:export-ydpi="300" /><flowRoot
     xml:space="preserve"
     id="flowRoot3750"
     style="font-style:normal;font-variant:normal;font-weight:normal;font-stretch:normal;font-size:39.99897821px;line-height:1.25;font-family:'Alte DIN 1451 Mittelschrift gepraegt';-inkscape-font-specification:'Alte DIN 1451 Mittelschrift gepraegt, Normal';font-variant-ligatures:normal;font-variant-caps:normal;font-variant-numeric:normal;font-feature-settings:normal;text-align:start;letter-spacing:0px;word-spacing:0px;writing-mode:lr;text-anchor:start;fill:#8a8a8a;fill-opacity:1;stroke:none;"
     transform="matrix(5.4806402,0,0,5.4643181,-846.97398,-766.22291)"
     inkscape:export-xdpi="300"
     inkscape:export-ydpi="300"><flowRegion
       id="flowRegion3752"
       style="font-style:normal;font-variant:normal;font-weight:normal;font-stretch:normal;font-size:39.99897821px;font-family:'Alte DIN 1451 Mittelschrift gepraegt';-inkscape-font-specification:'Alte DIN 1451 Mittelschrift gepraegt, Normal';font-variant-ligatures:normal;font-variant-caps:normal;font-variant-numeric:normal;font-feature-settings:normal;text-align:start;writing-mode:lr;text-anchor:start;fill:#8a8a8a;fill-opacity:1;"><rect
         id="rect3754"
         width="104.23729"
         height="167.79662"
         x="187.0233"
         y="159.21609"
         style="font-style:normal;font-variant:normal;font-weight:normal;font-stretch:normal;font-size:39.99897821px;font-family:'Alte DIN 1451 Mittelschrift gepraegt';-inkscape-font-specification:'Alte DIN 1451 Mittelschrift gepraegt, Normal';font-variant-ligatures:normal;font-variant-caps:normal;font-variant-numeric:normal;font-feature-settings:normal;text-align:start;writing-mode:lr;text-anchor:start;fill:#8a8a8a;fill-opacity:1;" /></flowRegion><flowPara
       id="flowPara3898">1</flowPara></flowRoot><path
     id="path7063"
     style="fill:#8a8a8a;fill-opacity:1;fill-rule:nonzero;stroke:none;stroke-width:1.17934251"
     d="m 315.86693,263.42456 c 0,12.14914 9.87282,21.97373 22.05708,21.97373 12.17125,0 22.0441,-9.82459 22.0441,-21.97373 v -68.6956 c 0,-12.13383 -9.87285,-21.97844 -22.0441,-21.97844 -12.18426,0 -22.05708,9.84461 -22.05708,21.97844 z m -22.04053,0 v -68.6956 c 0,-24.27355 19.7421,-43.95688 44.09761,-43.95688 24.36023,0 44.10239,19.68333 44.10239,43.95688 v 68.6956 c 0,24.28297 -19.74216,43.9663 -44.10239,43.9663 -24.35551,0 -44.09761,-19.68333 -44.09761,-43.9663"
     inkscape:connector-curvature="0"
     inkscape:export-xdpi="300"
     inkscape:export-ydpi="300" /><path
     id="path7065"
     style="fill:#000000;fill-opacity:1;fill-rule:nonzero;stroke:none;stroke-width:1.17934251"
     d="M 38.284253,0 C 17.17205,0 0,17.120907 0,38.170236 V 527.0705 c 0,21.04933 17.17205,38.17024 38.284253,38.17024 H 528.6449 c 21.11219,0 38.28423,-17.12091 38.28423,-38.17024 V 38.170236 C 566.92913,17.120907 549.75709,0 528.6449,0 Z m 0,0.569951 H 528.6449 c 20.83936,0 37.72558,16.831221 37.72558,37.600285 V 527.0705 c 0,20.78202 -16.88622,37.61324 -37.72558,37.61324 H 38.284253 c -20.82638,0 -37.71259945,-16.83122 -37.71259945,-37.61324 V 38.170236 c 0,-20.769064 16.88621945,-37.600285 37.71259945,-37.600285 z"
     inkscape:connector-curvature="0"
     inkscape:export-xdpi="300"
     inkscape:export-ydpi="300" /><path
     id="path7067"
     style="fill:#000000;fill-opacity:1;fill-rule:nonzero;stroke:none;stroke-width:1.17934251"
     d="M 37.8,9.4301 C 22.140947,9.4301 9.458268,22.075006 9.458268,37.687427 V 527.55331 c 0,15.62655 12.682679,28.27617 28.341732,28.27617 h 491.32913 c 15.66852,0 28.35592,-12.64962 28.35592,-28.27617 V 37.687427 c 0,-15.612421 -12.6874,-28.257327 -28.35592,-28.257327 z m 0,14.126308 H 480.17362 L 23.62677,478.7436 V 37.687427 c 0,-7.806211 6.343704,-14.131019 14.17323,-14.131019 z m 456.39922,0.0047 h 14.03032 L 23.62677,506.71595 v -13.96969 z m 28.07363,0 h 6.85628 c 2.02561,0 4.04175,0.436884 5.88663,1.264727 L 24.9,533.43652 c -0.844488,-1.85351 -1.27323,-3.85894 -1.27323,-5.88321 v -6.83588 z m 19.75628,8.260758 c 0.84449,1.849986 1.28741,3.845992 1.28741,5.865551 v 6.853544 L 44.669293,541.69846 H 37.8 c -2.02559,0 -4.041731,-0.42746 -5.886615,-1.28357 z m 1.28741,26.702915 V 72.527454 L 72.729921,541.69846 H 58.699608 Z m 0,27.972353 V 527.55331 c 0,7.82034 -6.35786,14.14515 -14.18741,14.14515 H 86.755514 Z"
     inkscape:connector-curvature="0"
     inkscape:export-xdpi="300"
     inkscape:export-ydpi="300" /><path
     id="path7069"
     style="fill:#8a8a8a;fill-opacity:1;fill-rule:nonzero;stroke:none;stroke-width:1.17934251"
     d="m 364.24606,515.16159 v -79.13371 h 51.04017 v 11.29304 h -38.98466 v 22.61787 h 33.31536 v 10.59827 h -33.31536 v 23.31736 h 38.98466 v 11.30717 z m -77.94449,0 v -79.13371 h 11.34097 l 36.1429,56.51583 v -56.51583 h 12.04251 v 79.13371 H 334.48701 L 298.35708,458.6328 v 56.52879 z M 226.0701,487.60257 c 0,8.97084 7.28502,16.25185 16.28619,16.25185 9.01537,0 16.30039,-7.28101 16.30039,-16.25185 v -24.0298 c 0,-8.95553 -7.28502,-16.25185 -16.30039,-16.25185 -9.00117,0 -16.28619,7.29632 -16.28619,16.25185 z m -12.05551,0 v -24.0298 c 0,-15.59358 12.70156,-28.25733 28.3417,-28.25733 15.65908,0 28.3559,12.66375 28.3559,28.25733 v 24.0298 c 0,15.60771 -12.69682,28.25732 -28.3559,28.25732 -15.64014,0 -28.3417,-12.64961 -28.3417,-28.25732 z m -45.92958,-40.97996 10.62997,-10.59473 h -14.02915 l -10.62993,10.59473 z m -16.42911,68.53898 v -9.89996 L 187.8,446.62261 h -5.68463 l 10.62637,-10.59473 h 9.94133 v 9.17221 l -36.13819,58.65433 h 36.13819 v 11.30717"
     inkscape:connector-curvature="0"
     inkscape:export-xdpi="300"
     inkscape:export-ydpi="300" /><path
     id="path7071"
     style="fill:#8a8a8a;fill-opacity:1;fill-rule:nonzero;stroke:none;stroke-width:1.17934251"
     d="m 166.1705,364.59558 c -2.50039,-2.16204 -4.94059,-4.38297 -7.3264,-6.66513 l 33.41219,-33.32683 c 2.4,2.27745 4.88626,4.45834 7.45629,6.56504 z M 419.3882,112.13787 385.85551,145.5648 c -2.09881,-2.5483 -4.29922,-5.02711 -6.58346,-7.41997 l 33.41221,-33.3127 c 2.30197,2.3646 4.5307,4.81162 6.70394,7.30574 z M 182.02795,376.76239 c -2.75435,-1.8806 -5.47205,-3.84482 -8.1295,-5.88321 l 33.78656,-33.68482 c 2.78626,1.93595 5.62797,3.74354 8.5441,5.4687 z m 249.55868,-248.81544 -34.18702,34.09932 c -1.7256,-2.90628 -3.55747,-5.74072 -5.49922,-8.50451 l 33.78544,-33.69895 c 2.04449,2.64957 4.01339,5.3533 5.9008,8.10414 z M 199.52834,387.30177 c -3.04131,-1.5968 -6.02597,-3.27604 -8.96926,-5.05537 l 34.79643,-34.68458 c 3.18781,1.56854 6.43112,2.99106 9.72991,4.27345 z M 442.1563,145.38109 406.58503,180.86055 c -1.30038,-3.30313 -2.72597,-6.53678 -4.28619,-9.71508 l 34.78699,-34.6787 c 1.77166,2.9157 3.47007,5.89735 5.07047,8.91432 z M 218.79922,396.05947 c -3.32601,-1.27885 -6.62952,-2.66369 -9.86811,-4.1451 l 36.6,-36.47686 c 3.68147,1.09986 7.40903,2.03722 11.19684,2.80618 z M 450.94134,164.6087 413.01731,202.42448 c -0.76653,-3.75767 -1.71731,-7.49297 -2.83346,-11.16821 l 36.6,-36.48629 c 1.48585,3.22893 2.87483,6.52264 4.15749,9.83872 z M 405.59765,97.910294 C 332.94214,30.640759 219.34371,34.854157 151.88742,107.30742 c -63.927182,68.6685 -63.927182,174.88077 0,243.54339 l 33.43937,-33.32565 c -48.98269,-54.04055 -44.75668,-137.44653 9.4441,-186.28922 50.37282,-45.392356 127.02872,-45.392356 177.40038,0 z m 48.98858,77.052906 c 29.98465,94.22092 -22.32993,194.84908 -116.82755,224.7303 -35.33151,11.18235 -73.25672,11.18235 -108.57405,0 l 39.64489,-39.52681 c 72.61536,8.06292 138.02836,-44.09585 146.09765,-116.49377 1.09725,-9.69741 1.09725,-19.48549 0,-29.16877"
     inkscape:connector-curvature="0"
     inkscape:export-xdpi="300"
     inkscape:export-ydpi="300" /></svg>