<?xml version="1.0" encoding="UTF-8" standalone="no"?>
<svg
   xmlns:dc="http://purl.org/dc/elements/1.1/"
   xmlns:cc="http://creativecommons.org/ns#"
   xmlns:rdf="http://www.w3.org/1999/02/22-rdf-syntax-ns#"
   xmlns:svg="http://www.w3.org/2000/svg"
   xmlns="http://www.w3.org/2000/svg"
   xmlns:sodipodi="http://sodipodi.sourceforge.net/DTD/sodipodi-0.dtd"
   xmlns:inkscape="http://www.inkscape.org/namespaces/inkscape"
   viewBox="0 0 377.95276 377.95276"
   height="377.95276"
   width="377.95276"
   xml:space="preserve"
   version="1.1"
   id="svg3772"
   sodipodi:docname="vorbeifahrt_rechts.svg"
   inkscape:version="0.92.3 (unknown)"><sodipodi:namedview
     pagecolor="#ffffff"
     bordercolor="#666666"
     borderopacity="1"
     objecttolerance="10"
     gridtolerance="10"
     guidetolerance="10"
     inkscape:pageopacity="1"
     inkscape:pageshadow="2"
     inkscape:window-width="3775"
     inkscape:window-height="2136"
     id="namedview11"
     showgrid="false"
     fit-margin-top="0"
     fit-margin-left="0"
     fit-margin-right="0"
     fit-margin-bottom="0"
     inkscape:zoom="2.217559"
     inkscape:cx="178.35885"
     inkscape:cy="388.49594"
     inkscape:window-x="65"
     inkscape:window-y="24"
     inkscape:window-maximized="1"
     inkscape:current-layer="svg3772" /><metadata
     id="metadata3778"><rdf:RDF><cc:Work
         rdf:about=""><dc:format>image/svg+xml</dc:format><dc:type
           rdf:resource="http://purl.org/dc/dcmitype/StillImage" /><dc:title></dc:title></cc:Work></rdf:RDF></metadata><defs
     id="defs3776" /><g
     transform="matrix(0.78475548,0,0,-0.78475874,-5.8851523e-4,377.95295)"
     id="g3780"><g
       id="g3782"><path
         id="path3784"
         style="fill:#000000;fill-opacity:1;fill-rule:evenodd;stroke:none"
         d="M 70.84,70.793 C 102.117,39.515 135.836,20.039 178.566,8.59 c 42.77,-11.453 81.715,-11.453 124.485,0 42.73,11.453 76.469,30.941 107.765,62.238 31.278,31.277 50.754,65 62.223,107.746 11.434,42.75 11.453,81.719 -0.019,124.469 -11.454,42.726 -30.926,76.449 -62.204,107.726 -31.296,31.297 -65.035,50.789 -107.785,62.258 -42.73,11.453 -81.715,11.453 -124.445,0 C 135.84,461.562 102.117,442.086 70.84,410.805 39.543,379.512 20.051,345.773 8.602,303.039 -2.871,260.293 -2.855,221.324 8.582,178.578 20.051,135.828 39.539,102.09 70.84,70.793 Z m 0.281,0.281 C 39.867,102.328 20.418,135.988 8.969,178.68 c -11.422,42.695 -11.442,81.57 0.015,124.257 11.438,42.676 30.887,76.332 62.141,107.582 31.234,31.239 64.875,50.672 107.563,62.125 42.671,11.434 81.566,11.434 124.238,-0.004 42.691,-11.453 76.351,-30.902 107.605,-62.156 31.235,-31.234 50.668,-64.879 62.102,-107.547 11.453,-42.691 11.433,-81.566 0.019,-124.257 C 461.199,135.988 441.773,102.347 410.535,71.109 379.281,39.855 345.621,20.41 302.945,8.976 260.238,-2.461 221.383,-2.461 178.672,8.976 136,20.406 102.355,39.84 71.121,71.074 Z"
         inkscape:connector-curvature="0" /><path
         id="path3786"
         style="fill:#ffffff;fill-opacity:1;fill-rule:evenodd;stroke:none"
         d="M 71.125,410.519 C 39.871,379.269 20.422,345.613 8.984,302.937 -2.473,260.25 -2.453,221.375 8.969,178.68 20.422,135.988 39.867,102.328 71.121,71.074 102.359,39.836 136,20.406 178.672,8.976 c 42.711,-11.437 81.57,-11.437 124.277,-0.004 42.672,11.438 76.332,30.883 107.586,62.137 31.238,31.238 50.664,64.879 62.117,107.567 11.418,42.691 11.434,81.57 -0.019,124.261 -11.434,42.668 -30.863,76.313 -62.102,107.547 -31.254,31.254 -64.914,50.699 -107.605,62.156 -42.672,11.438 -81.567,11.438 -124.238,0 C 136,461.191 102.359,441.758 71.125,410.519 Z"
         inkscape:connector-curvature="0" /><path
         id="path3788"
         style="fill:#154889;fill-opacity:1;fill-rule:evenodd;stroke:none"
         d="M 79.023,402.582 C 49.254,372.812 30.707,340.715 19.828,300.027 8.914,259.344 8.914,222.25 19.812,181.582 30.688,140.898 49.25,108.781 79.039,78.992 108.812,49.219 140.91,30.711 181.574,19.816 c 40.707,-10.894 77.762,-10.894 118.465,0 40.668,10.895 72.785,29.422 102.559,59.196 29.789,29.789 48.336,61.886 59.211,102.57 10.894,40.668 10.898,77.762 -0.02,118.449 -10.875,40.684 -29.402,72.762 -59.176,102.535 -29.789,29.789 -61.906,48.356 -102.59,59.227 -40.664,10.898 -77.761,10.898 -118.429,0 C 140.91,450.922 108.812,432.371 79.023,402.582 Z"
         inkscape:connector-curvature="0" /><path
         id="path3790"
         style="fill:#ffffff;fill-opacity:1;fill-rule:nonzero;stroke:none"
         d="m 166.969,157.851 121.219,0.075 -193.024,193.023 35.461,35.465 193.219,-193.223 0.074,121.281 44.691,-44.695 0.153,-156.828 -7.684,7.895 7.414,-7.836 -156.847,0.168 z"
         inkscape:connector-curvature="0" /></g></g></svg>