<?xml version="1.0" encoding="UTF-8" standalone="no"?>
<svg
   xmlns:dc="http://purl.org/dc/elements/1.1/"
   xmlns:cc="http://creativecommons.org/ns#"
   xmlns:rdf="http://www.w3.org/1999/02/22-rdf-syntax-ns#"
   xmlns:svg="http://www.w3.org/2000/svg"
   xmlns="http://www.w3.org/2000/svg"
   xmlns:sodipodi="http://sodipodi.sourceforge.net/DTD/sodipodi-0.dtd"
   xmlns:inkscape="http://www.inkscape.org/namespaces/inkscape"
   viewBox="0 0 377.95276 377.95276"
   height="377.95276"
   width="377.95276"
   xml:space="preserve"
   version="1.1"
   id="svg3695"
   sodipodi:docname="vorbeifahrt_links.svg"
   inkscape:version="0.92.3 (unknown)"><sodipodi:namedview
     pagecolor="#ffffff"
     bordercolor="#666666"
     borderopacity="1"
     objecttolerance="10"
     gridtolerance="10"
     guidetolerance="10"
     inkscape:pageopacity="1"
     inkscape:pageshadow="2"
     inkscape:window-width="3775"
     inkscape:window-height="2136"
     id="namedview11"
     showgrid="false"
     fit-margin-top="0"
     fit-margin-left="0"
     fit-margin-right="0"
     fit-margin-bottom="0"
     inkscape:zoom="1.568051"
     inkscape:cx="325.40956"
     inkscape:cy="587.45514"
     inkscape:window-x="65"
     inkscape:window-y="24"
     inkscape:window-maximized="1"
     inkscape:current-layer="svg3695" /><metadata
     id="metadata3701"><rdf:RDF><cc:Work
         rdf:about=""><dc:format>image/svg+xml</dc:format><dc:type
           rdf:resource="http://purl.org/dc/dcmitype/StillImage" /><dc:title></dc:title></cc:Work></rdf:RDF></metadata><defs
     id="defs3699" /><g
     transform="matrix(0.78475813,0,0,-0.78475874,-6.8666015e-4,377.95295)"
     id="g3703"><g
       id="g3705"><path
         id="path3707"
         style="fill:#000000;fill-opacity:1;fill-rule:evenodd;stroke:none"
         d="M 410.781,70.793 C 379.5,39.515 345.781,20.039 303.051,8.59 c -42.77,-11.453 -81.715,-11.453 -124.485,0 -42.73,11.453 -76.464,30.941 -107.765,62.238 -31.278,31.277 -50.754,65 -62.223,107.746 -11.43,42.75 -11.449,81.719 0.02,124.469 11.453,42.726 30.925,76.449 62.203,107.726 31.301,31.297 65.035,50.789 107.785,62.258 42.73,11.453 81.715,11.453 124.445,0 42.746,-11.465 76.469,-30.941 107.75,-62.222 31.293,-31.293 50.785,-65.032 62.239,-107.766 11.468,-42.746 11.453,-81.715 0.019,-124.461 -11.473,-42.75 -30.961,-76.488 -62.258,-107.785 z m -0.285,0.281 c 31.254,31.254 50.703,64.914 62.156,107.606 11.418,42.695 11.438,81.57 -0.015,124.257 -11.442,42.676 -30.891,76.332 -62.141,107.582 -31.238,31.239 -64.879,50.672 -107.566,62.125 -42.672,11.434 -81.567,11.434 -124.239,-0.004 C 136,461.187 102.34,441.738 71.086,410.484 39.852,379.25 20.422,345.605 8.984,302.937 -2.469,260.246 -2.449,221.371 8.965,178.68 20.418,135.988 39.848,102.347 71.082,71.109 102.336,39.855 135.996,20.41 178.672,8.976 c 42.707,-11.437 81.566,-11.437 124.273,0 42.672,11.43 76.317,30.864 107.551,62.098 z"
         inkscape:connector-curvature="0" /><path
         id="path3709"
         style="fill:#ffffff;fill-opacity:1;fill-rule:evenodd;stroke:none"
         d="m 410.496,410.519 c 31.25,-31.25 50.699,-64.906 62.141,-107.582 C 484.09,260.25 484.07,221.375 472.652,178.68 461.195,135.988 441.75,102.328 410.496,71.074 379.262,39.836 345.617,20.406 302.945,8.976 260.238,-2.461 221.375,-2.461 178.668,8.972 135.996,20.41 102.336,39.855 71.082,71.109 39.848,102.347 20.418,135.988 8.965,178.676 c -11.418,42.691 -11.434,81.57 0.019,124.261 11.438,42.668 30.864,76.313 62.102,107.547 31.254,31.254 64.914,50.699 107.605,62.156 42.672,11.438 81.567,11.438 124.243,0 42.683,-11.449 76.324,-30.882 107.562,-62.121 z"
         inkscape:connector-curvature="0" /><path
         id="path3711"
         style="fill:#154889;fill-opacity:1;fill-rule:evenodd;stroke:none"
         d="m 402.594,402.582 c 29.769,-29.77 48.32,-61.867 59.195,-102.555 10.914,-40.683 10.914,-77.777 0.02,-118.445 C 450.934,140.898 432.367,108.781 402.578,78.992 372.805,49.219 340.707,30.711 300.043,19.816 259.336,8.922 222.281,8.922 181.578,19.816 140.91,30.711 108.793,49.238 79.023,79.012 49.23,108.801 30.684,140.898 19.809,181.582 8.914,222.25 8.914,259.344 19.828,300.031 c 10.875,40.684 29.406,72.762 59.176,102.535 29.793,29.789 61.906,48.356 102.59,59.227 40.668,10.898 77.761,10.898 118.429,0 40.684,-10.871 72.782,-29.422 102.571,-59.211 z"
         inkscape:connector-curvature="0" /><path
         id="path3713"
         style="fill:#ffffff;fill-opacity:1;fill-rule:nonzero;stroke:none"
         d="m 314.648,157.851 -121.214,0.075 193.023,193.023 -35.465,35.465 -193.219,-193.223 -0.074,121.281 -44.691,-44.695 -0.153,-156.828 7.684,7.895 -7.414,-7.836 156.848,0.168 z"
         inkscape:connector-curvature="0" /></g></g></svg>